G04*
G04 #@! TF.GenerationSoftware,Altium Limited,Altium Designer,24.6.1 (21)*
G04*
G04 Layer_Color=16711935*
%FSLAX44Y44*%
%MOMM*%
G71*
G04*
G04 #@! TF.SameCoordinates,CA4F1A14-4193-417A-A47F-E77CBFA95546*
G04*
G04*
G04 #@! TF.FilePolarity,Negative*
G04*
G01*
G75*
%ADD35C,1.5700*%
%ADD36R,1.5700X1.5700*%
%ADD37C,1.9032*%
%ADD38C,3.2032*%
%ADD39R,1.5700X1.5700*%
%ADD40C,0.8032*%
D35*
X716280Y1093470D02*
D03*
X777240Y1068070D02*
D03*
X847090D02*
D03*
X836930Y877570D02*
D03*
X533400Y1052830D02*
D03*
X655320Y843280D02*
D03*
X511810Y1105950D02*
D03*
Y1211580D02*
D03*
Y1156970D02*
D03*
D36*
X716280Y1068070D02*
D03*
X777240Y1093470D02*
D03*
X847090D02*
D03*
X836930Y852170D02*
D03*
X655320Y868680D02*
D03*
D37*
X798830Y1234590D02*
D03*
Y1164590D02*
D03*
D38*
X344170Y1231950D02*
D03*
Y1015950D02*
D03*
Y939850D02*
D03*
Y723850D02*
D03*
D39*
X558800Y1052830D02*
D03*
X486410Y1211580D02*
D03*
Y1156970D02*
D03*
Y1105950D02*
D03*
D40*
X561340Y845820D02*
D03*
X544830Y914400D02*
D03*
X344170Y768350D02*
D03*
Y899160D02*
D03*
X485140Y878840D02*
D03*
X506730Y892810D02*
D03*
X447040Y802640D02*
D03*
X589280Y1032510D02*
D03*
X656590Y1059180D02*
D03*
X373380Y1179830D02*
D03*
X452120Y1129030D02*
D03*
X495300Y1073150D02*
D03*
X482600Y943610D02*
D03*
X467360Y741680D02*
D03*
X664210Y1247140D02*
D03*
X708660Y863450D02*
D03*
X782320Y890270D02*
D03*
X784860Y869950D02*
D03*
M02*
