G04*
G04 #@! TF.GenerationSoftware,Altium Limited,Altium Designer,24.6.1 (21)*
G04*
G04 Layer_Color=8388736*
%FSLAX44Y44*%
%MOMM*%
G71*
G04*
G04 #@! TF.SameCoordinates,CA4F1A14-4193-417A-A47F-E77CBFA95546*
G04*
G04*
G04 #@! TF.FilePolarity,Positive*
G04*
G01*
G75*
%ADD11C,0.2000*%
D11*
X504870Y862980D02*
X526370D01*
X504870Y848980D02*
Y862980D01*
Y848980D02*
X526370D01*
Y862980D01*
X638360Y996580D02*
X677360D01*
X638360D02*
Y1045580D01*
X677360D01*
Y996580D02*
Y1045580D01*
X560230Y949860D02*
X580230D01*
Y937360D02*
Y949860D01*
X560230Y937360D02*
X580230D01*
X560230D02*
Y949860D01*
X702930Y1053470D02*
X729630D01*
Y1108070D01*
X702930D02*
X729630D01*
X702930Y1053470D02*
Y1108070D01*
X763890D02*
X790590D01*
X763890Y1053470D02*
Y1108070D01*
Y1053470D02*
X790590D01*
Y1108070D01*
X833740D02*
X860440D01*
X833740Y1053470D02*
Y1108070D01*
Y1053470D02*
X860440D01*
Y1108070D01*
X740190Y859200D02*
X754190D01*
X740190D02*
Y880700D01*
X754190D01*
Y859200D02*
Y880700D01*
X506080Y932860D02*
Y954360D01*
Y932860D02*
X520080D01*
Y954360D01*
X506080D02*
X520080D01*
X456610Y774050D02*
X478110D01*
Y788050D01*
X456610D02*
X478110D01*
X456610Y774050D02*
Y788050D01*
X532290Y764640D02*
Y777140D01*
Y764640D02*
X552290D01*
Y777140D01*
X532290D02*
X552290D01*
X823580Y837570D02*
X850280D01*
Y892170D01*
X823580D02*
X850280D01*
X823580Y837570D02*
Y892170D01*
X744441Y758290D02*
Y770790D01*
X724441D02*
X744441D01*
X724441Y758290D02*
Y770790D01*
Y758290D02*
X744441D01*
X772260Y779620D02*
X784760D01*
X772260Y759620D02*
Y779620D01*
Y759620D02*
X784760D01*
Y779620D01*
X741840Y933550D02*
Y946050D01*
Y933550D02*
X761840D01*
Y946050D01*
X741840D02*
X761840D01*
X573400Y1039480D02*
Y1066180D01*
X518800D02*
X573400D01*
X518800Y1039480D02*
Y1066180D01*
Y1039480D02*
X573400D01*
X821469Y934820D02*
Y947320D01*
Y934820D02*
X841469D01*
Y947320D01*
X821469D02*
X841469D01*
X641970Y883280D02*
X668670D01*
X641970Y828680D02*
Y883280D01*
Y828680D02*
X668670D01*
Y883280D01*
X464660Y1045310D02*
Y1057810D01*
X444660D02*
X464660D01*
X444660Y1045310D02*
Y1057810D01*
Y1045310D02*
X464660D01*
X604620Y857410D02*
X617120D01*
Y877410D01*
X604620D02*
X617120D01*
X604620Y857410D02*
Y877410D01*
X471810Y1198230D02*
Y1224930D01*
Y1198230D02*
X526410D01*
Y1224930D01*
X471810D02*
X526410D01*
X471810Y1143620D02*
Y1170320D01*
Y1143620D02*
X526410D01*
Y1170320D01*
X471810D02*
X526410D01*
X471810Y1092600D02*
Y1119300D01*
Y1092600D02*
X526410D01*
Y1119300D01*
X471810D02*
X526410D01*
X622079Y934820D02*
Y947320D01*
Y934820D02*
X642079D01*
Y947320D01*
X622079D02*
X642079D01*
X683420Y934820D02*
Y947320D01*
Y934820D02*
X703420D01*
Y947320D01*
X683420D02*
X703420D01*
M02*
