G04*
G04 #@! TF.GenerationSoftware,Altium Limited,Altium Designer,24.6.1 (21)*
G04*
G04 Layer_Color=255*
%FSLAX44Y44*%
%MOMM*%
G71*
G04*
G04 #@! TF.SameCoordinates,CA4F1A14-4193-417A-A47F-E77CBFA95546*
G04*
G04*
G04 #@! TF.FilePolarity,Positive*
G04*
G01*
G75*
%ADD19R,1.5500X1.5000*%
%ADD20R,2.1741X0.5821*%
G04:AMPARAMS|DCode=21|XSize=2.1741mm|YSize=0.5821mm|CornerRadius=0.2911mm|HoleSize=0mm|Usage=FLASHONLY|Rotation=180.000|XOffset=0mm|YOffset=0mm|HoleType=Round|Shape=RoundedRectangle|*
%AMROUNDEDRECTD21*
21,1,2.1741,0.0000,0,0,180.0*
21,1,1.5919,0.5821,0,0,180.0*
1,1,0.5821,-0.7960,0.0000*
1,1,0.5821,0.7960,0.0000*
1,1,0.5821,0.7960,0.0000*
1,1,0.5821,-0.7960,0.0000*
%
%ADD21ROUNDEDRECTD21*%
%ADD22R,0.8065X1.3082*%
%ADD23R,2.8000X2.2000*%
%ADD24R,2.8000X2.8000*%
%ADD25R,3.9600X3.9600*%
%ADD26R,1.5000X1.5500*%
%ADD27R,1.3082X0.8065*%
%ADD29R,0.4000X0.9000*%
%ADD32R,0.9000X0.4000*%
%ADD35C,1.5700*%
%ADD36R,1.5700X1.5700*%
%ADD39R,1.5700X1.5700*%
%ADD42C,1.7000*%
%ADD43C,3.0000*%
D19*
X836930Y768350D02*
D03*
Y786350D02*
D03*
X681990Y1184690D02*
D03*
Y1202690D02*
D03*
X624840Y1184690D02*
D03*
Y1202690D02*
D03*
X572770Y1184690D02*
D03*
Y1202690D02*
D03*
X624840Y1123950D02*
D03*
Y1105950D02*
D03*
X572770Y1123950D02*
D03*
Y1105950D02*
D03*
X681990Y1105950D02*
D03*
Y1123950D02*
D03*
D20*
X681521Y1002030D02*
D03*
D21*
Y1014730D02*
D03*
Y1027430D02*
D03*
X634199Y1040130D02*
D03*
Y1002030D02*
D03*
Y1014730D02*
D03*
Y1027430D02*
D03*
X681521Y1040130D02*
D03*
D22*
X561721Y943610D02*
D03*
X578739D02*
D03*
X550799Y770890D02*
D03*
X533781D02*
D03*
X725933Y764540D02*
D03*
X742950D02*
D03*
X760349Y939800D02*
D03*
X743331D02*
D03*
X839977Y941070D02*
D03*
X822960D02*
D03*
X463169Y1051560D02*
D03*
X446151D02*
D03*
X640587Y941070D02*
D03*
X623570D02*
D03*
X701929D02*
D03*
X684911D02*
D03*
D23*
X835830Y1225590D02*
D03*
X761830Y1245590D02*
D03*
D24*
Y1151590D02*
D03*
D25*
X344170Y1123950D02*
D03*
Y831850D02*
D03*
D26*
X656480Y791210D02*
D03*
X674480D02*
D03*
X607170D02*
D03*
X589170D02*
D03*
X445770Y866140D02*
D03*
X463770D02*
D03*
X443450Y967740D02*
D03*
X425450D02*
D03*
D27*
X778510Y761111D02*
D03*
Y778129D02*
D03*
X610870Y858901D02*
D03*
Y875919D02*
D03*
D29*
X522120Y844980D02*
D03*
X509120D02*
D03*
Y866980D02*
D03*
X515620D02*
D03*
X522120D02*
D03*
X460860Y792050D02*
D03*
X473860D02*
D03*
Y770050D02*
D03*
X467360D02*
D03*
X460860D02*
D03*
D32*
X758190Y863450D02*
D03*
Y869950D02*
D03*
Y876450D02*
D03*
X736190D02*
D03*
Y863450D02*
D03*
X524080Y950110D02*
D03*
Y937110D02*
D03*
X502080D02*
D03*
Y943610D02*
D03*
Y950110D02*
D03*
D35*
X716280Y1093470D02*
D03*
X777240Y1068070D02*
D03*
X847090D02*
D03*
X836930Y877570D02*
D03*
X533400Y1052830D02*
D03*
X655320Y843280D02*
D03*
X511810Y1105950D02*
D03*
Y1211580D02*
D03*
Y1156970D02*
D03*
D36*
X716280Y1068070D02*
D03*
X777240Y1093470D02*
D03*
X847090D02*
D03*
X836930Y852170D02*
D03*
X655320Y868680D02*
D03*
D39*
X558800Y1052830D02*
D03*
X486410Y1211580D02*
D03*
Y1156970D02*
D03*
Y1105950D02*
D03*
D42*
X798830Y1234590D02*
D03*
Y1164590D02*
D03*
D43*
X344170Y1231950D02*
D03*
Y1015950D02*
D03*
Y939850D02*
D03*
Y723850D02*
D03*
M02*
