G04*
G04 #@! TF.GenerationSoftware,Altium Limited,Altium Designer,24.6.1 (21)*
G04*
G04 Layer_Color=65535*
%FSLAX44Y44*%
%MOMM*%
G71*
G04*
G04 #@! TF.SameCoordinates,CA4F1A14-4193-417A-A47F-E77CBFA95546*
G04*
G04*
G04 #@! TF.FilePolarity,Positive*
G04*
G01*
G75*
%ADD10C,0.2500*%
%ADD11C,0.2000*%
%ADD12C,0.1270*%
%ADD13C,0.1500*%
%ADD14C,0.2540*%
D10*
X523370Y876980D02*
G03*
X523370Y876980I-1250J0D01*
G01*
X703141Y1002030D02*
G03*
X703141Y1002030I-1250J0D01*
G01*
X717530Y1049520D02*
G03*
X717530Y1049520I-1250J0D01*
G01*
X778490Y1112020D02*
G03*
X778490Y1112020I-1250J0D01*
G01*
X848340D02*
G03*
X848340Y1112020I-1250J0D01*
G01*
X769440Y863450D02*
G03*
X769440Y863450I-1250J0D01*
G01*
X493330Y950110D02*
G03*
X493330Y950110I-1250J0D01*
G01*
X462110Y760050D02*
G03*
X462110Y760050I-1250J0D01*
G01*
X838180Y833620D02*
G03*
X838180Y833620I-1250J0D01*
G01*
X578600Y1052830D02*
G03*
X578600Y1052830I-1250J0D01*
G01*
X656570Y887230D02*
G03*
X656570Y887230I-1250J0D01*
G01*
X469110Y1211580D02*
G03*
X469110Y1211580I-1250J0D01*
G01*
Y1156970D02*
G03*
X469110Y1156970I-1250J0D01*
G01*
Y1105950D02*
G03*
X469110Y1105950I-1250J0D01*
G01*
D11*
X766830Y1277590D02*
G03*
X766830Y1277590I-1000J0D01*
G01*
X504870Y853230D02*
Y858730D01*
X514870Y848980D02*
X516370D01*
X526370Y853230D02*
Y858730D01*
X650070Y996580D02*
X665650D01*
X650070D02*
Y1045580D01*
X665650D01*
Y996580D02*
Y1045580D01*
X569504Y949860D02*
X570956D01*
X569504Y937360D02*
X570956D01*
X702930Y1053470D02*
X729630D01*
Y1108070D01*
X702930D02*
X729630D01*
X702930Y1053470D02*
Y1108070D01*
X763890D02*
X790590D01*
X763890Y1053470D02*
Y1108070D01*
Y1053470D02*
X790590D01*
Y1108070D01*
X833740D02*
X860440D01*
X833740Y1053470D02*
Y1108070D01*
Y1053470D02*
X860440D01*
Y1108070D01*
X744440Y859200D02*
X749940D01*
X740190Y869200D02*
Y870700D01*
X744440Y880700D02*
X749940D01*
X510330Y932860D02*
X515830D01*
X520080Y942860D02*
Y944360D01*
X510330Y954360D02*
X515830D01*
X478110Y778300D02*
Y783800D01*
X466610Y788050D02*
X468110D01*
X456610Y778300D02*
Y783800D01*
X541564Y764640D02*
X543016D01*
X541564Y777140D02*
X543016D01*
X823580Y837570D02*
X850280D01*
Y892170D01*
X823580D02*
X850280D01*
X823580Y837570D02*
Y892170D01*
X733715Y770790D02*
X735167D01*
X733715Y758290D02*
X735167D01*
X772260Y768894D02*
Y770346D01*
X784760Y768894D02*
Y770346D01*
X751114Y933550D02*
X752566D01*
X751114Y946050D02*
X752566D01*
X573400Y1039480D02*
Y1066180D01*
X518800D02*
X573400D01*
X518800Y1039480D02*
Y1066180D01*
Y1039480D02*
X573400D01*
X830742Y934820D02*
X832195D01*
X830742Y947320D02*
X832195D01*
X641970Y883280D02*
X668670D01*
X641970Y828680D02*
Y883280D01*
Y828680D02*
X668670D01*
Y883280D01*
X453934Y1057810D02*
X455386D01*
X453934Y1045310D02*
X455386D01*
X617120Y866684D02*
Y868136D01*
X604620Y866684D02*
Y868136D01*
X471810Y1198230D02*
Y1224930D01*
Y1198230D02*
X526410D01*
Y1224930D01*
X471810D02*
X526410D01*
X471810Y1143620D02*
Y1170320D01*
Y1143620D02*
X526410D01*
Y1170320D01*
X471810D02*
X526410D01*
X471810Y1092600D02*
Y1119300D01*
Y1092600D02*
X526410D01*
Y1119300D01*
X471810D02*
X526410D01*
X631353Y934820D02*
X632805D01*
X631353Y947320D02*
X632805D01*
X692694Y934820D02*
X694146D01*
X692694Y947320D02*
X694146D01*
D12*
X768830Y1269590D02*
X773830D01*
X823830D01*
X828830D01*
Y1238590D02*
Y1269590D01*
Y1124590D02*
Y1212590D01*
X768830Y1124590D02*
X828830D01*
X768830Y1258590D02*
Y1269590D01*
Y1167590D02*
Y1232590D01*
Y1124590D02*
Y1135590D01*
X823830Y1269590D02*
Y1294590D01*
X773830D02*
X823830D01*
X773830Y1269590D02*
Y1294590D01*
X420370Y1018550D02*
Y1229350D01*
X369570Y1018550D02*
X420370D01*
X369570Y1229350D02*
X420370D01*
X267970D02*
X318770D01*
X267970Y1018550D02*
Y1229350D01*
Y1018550D02*
X318770D01*
X420370Y726450D02*
Y937250D01*
X369570Y726450D02*
X420370D01*
X369570Y937250D02*
X420370D01*
X267970D02*
X318770D01*
X267970Y726450D02*
Y937250D01*
Y726450D02*
X318770D01*
D13*
X520930Y717617D02*
Y711369D01*
X522180Y710119D01*
X524679D01*
X525928Y711369D01*
Y717617D01*
X533426D02*
Y710119D01*
X529677D01*
X528428Y711369D01*
Y713868D01*
X529677Y715118D01*
X533426D01*
X538424Y707620D02*
X539674D01*
X540924Y708870D01*
Y715118D01*
X537175D01*
X535925Y713868D01*
Y711369D01*
X537175Y710119D01*
X540924D01*
X544672Y715118D02*
X547172D01*
X548421Y713868D01*
Y710119D01*
X544672D01*
X543423Y711369D01*
X544672Y712618D01*
X548421D01*
X550920Y710119D02*
Y715118D01*
X552170D01*
X553420Y713868D01*
Y710119D01*
Y713868D01*
X554669Y715118D01*
X555919Y713868D01*
Y710119D01*
X565916Y717617D02*
Y710119D01*
X569664D01*
X570914Y711369D01*
Y712618D01*
X569664Y713868D01*
X565916D01*
X569664D01*
X570914Y715118D01*
Y716367D01*
X569664Y717617D01*
X565916D01*
X573413D02*
Y710119D01*
Y713868D01*
X574663Y715118D01*
X577162D01*
X578411Y713868D01*
Y710119D01*
X582160Y715118D02*
X584660D01*
X585909Y713868D01*
Y710119D01*
X582160D01*
X580911Y711369D01*
X582160Y712618D01*
X585909D01*
X589658Y716367D02*
Y715118D01*
X588408D01*
X590908D01*
X589658D01*
Y711369D01*
X590908Y710119D01*
X595906Y716367D02*
Y715118D01*
X594656D01*
X597155D01*
X595906D01*
Y711369D01*
X597155Y710119D01*
X602154Y715118D02*
X604653D01*
X605903Y713868D01*
Y710119D01*
X602154D01*
X600904Y711369D01*
X602154Y712618D01*
X605903D01*
X608402Y715118D02*
Y710119D01*
Y712618D01*
X609651Y713868D01*
X610901Y715118D01*
X612151D01*
X617149D02*
X619648D01*
X620898Y713868D01*
Y710119D01*
X617149D01*
X615900Y711369D01*
X617149Y712618D01*
X620898D01*
X623397Y710119D02*
X625896D01*
X624647D01*
Y715118D01*
X623397D01*
X639642Y710119D02*
X637143Y712618D01*
Y715118D01*
X639642Y717617D01*
X643391Y715118D02*
Y711369D01*
X644640Y710119D01*
X648389D01*
Y715118D01*
X650888Y717617D02*
Y710119D01*
X654637D01*
X655887Y711369D01*
Y712618D01*
Y713868D01*
X654637Y715118D01*
X650888D01*
X663384Y710119D02*
X658386D01*
X663384Y715118D01*
Y716367D01*
X662135Y717617D01*
X659635D01*
X658386Y716367D01*
X665883D02*
X667133Y717617D01*
X669632D01*
X670882Y716367D01*
Y711369D01*
X669632Y710119D01*
X667133D01*
X665883Y711369D01*
Y716367D01*
X678380Y710119D02*
X673381D01*
X678380Y715118D01*
Y716367D01*
X677130Y717617D01*
X674631D01*
X673381Y716367D01*
X680879D02*
X682128Y717617D01*
X684628D01*
X685877Y716367D01*
Y715118D01*
X684628Y713868D01*
X685877Y712618D01*
Y711369D01*
X684628Y710119D01*
X682128D01*
X680879Y711369D01*
Y712618D01*
X682128Y713868D01*
X680879Y715118D01*
Y716367D01*
X682128Y713868D02*
X684628D01*
X688376Y710119D02*
X690875Y712618D01*
Y715118D01*
X688376Y717617D01*
D14*
X829312Y745488D02*
X826773Y748027D01*
X821694D01*
X819155Y745488D01*
Y735332D01*
X821694Y732793D01*
X826773D01*
X829312Y735332D01*
X834390Y732793D02*
X839469D01*
X836930D01*
Y748027D01*
X834390Y745488D01*
X847086Y732793D02*
X852165D01*
X849625D01*
Y748027D01*
X847086Y745488D01*
X530149Y892728D02*
Y884398D01*
X531815Y882732D01*
X535148D01*
X536814Y884398D01*
Y892728D01*
X546811D02*
X543478Y891062D01*
X540146Y887730D01*
Y884398D01*
X541812Y882732D01*
X545145D01*
X546811Y884398D01*
Y886064D01*
X545145Y887730D01*
X540146D01*
X681479Y1235706D02*
X678940Y1238245D01*
X673861D01*
X671322Y1235706D01*
Y1225549D01*
X673861Y1223010D01*
X678940D01*
X681479Y1225549D01*
X694175Y1223010D02*
Y1238245D01*
X686557Y1230628D01*
X696714D01*
X643494Y1231422D02*
X641828Y1233088D01*
X638495D01*
X636829Y1231422D01*
Y1224758D01*
X638495Y1223092D01*
X641828D01*
X643494Y1224758D01*
X646826Y1231422D02*
X648492Y1233088D01*
X651824D01*
X653491Y1231422D01*
Y1229756D01*
X651824Y1228090D01*
X650158D01*
X651824D01*
X653491Y1226424D01*
Y1224758D01*
X651824Y1223092D01*
X648492D01*
X646826Y1224758D01*
X587614Y1230152D02*
X585948Y1231818D01*
X582616D01*
X580949Y1230152D01*
Y1223488D01*
X582616Y1221822D01*
X585948D01*
X587614Y1223488D01*
X597611Y1221822D02*
X590946D01*
X597611Y1228486D01*
Y1230152D01*
X595945Y1231818D01*
X592612D01*
X590946Y1230152D01*
X640954Y1152682D02*
X639288Y1154348D01*
X635956D01*
X634289Y1152682D01*
Y1146018D01*
X635956Y1144352D01*
X639288D01*
X640954Y1146018D01*
X650951Y1154348D02*
X647618Y1152682D01*
X644286Y1149350D01*
Y1146018D01*
X645952Y1144352D01*
X649285D01*
X650951Y1146018D01*
Y1147684D01*
X649285Y1149350D01*
X644286D01*
X587614Y1151412D02*
X585948Y1153078D01*
X582616D01*
X580949Y1151412D01*
Y1144748D01*
X582616Y1143082D01*
X585948D01*
X587614Y1144748D01*
X597611Y1153078D02*
X590946D01*
Y1148080D01*
X594278Y1149746D01*
X595945D01*
X597611Y1148080D01*
Y1144748D01*
X595945Y1143082D01*
X592612D01*
X590946Y1144748D01*
X614010Y1070758D02*
Y1059928D01*
X616176Y1057762D01*
X620508D01*
X622674Y1059928D01*
Y1070758D01*
X635670Y1057762D02*
X627006D01*
X635670Y1066426D01*
Y1068592D01*
X633504Y1070758D01*
X629172D01*
X627006Y1068592D01*
X568249Y957662D02*
Y967658D01*
X573248D01*
X574914Y965992D01*
Y962660D01*
X573248Y960994D01*
X568249D01*
X571582D02*
X574914Y957662D01*
X578246Y959328D02*
X579912Y957662D01*
X583245D01*
X584911Y959328D01*
Y965992D01*
X583245Y967658D01*
X579912D01*
X578246Y965992D01*
Y964326D01*
X579912Y962660D01*
X584911D01*
X741284Y1103548D02*
X737952D01*
X739618D01*
Y1095218D01*
X737952Y1093552D01*
X736285D01*
X734619Y1095218D01*
X751281Y1093552D02*
X744616D01*
X751281Y1100216D01*
Y1101882D01*
X749614Y1103548D01*
X746282D01*
X744616Y1101882D01*
X804428Y1103548D02*
X801096D01*
X802762D01*
Y1095218D01*
X801096Y1093552D01*
X799430D01*
X797764Y1095218D01*
X807761Y1093552D02*
X811093D01*
X809427D01*
Y1103548D01*
X807761Y1101882D01*
X816092D02*
X817758Y1103548D01*
X821090D01*
X822756Y1101882D01*
Y1095218D01*
X821090Y1093552D01*
X817758D01*
X816092Y1095218D01*
Y1101882D01*
X754380Y1198798D02*
X751048D01*
X752714D01*
Y1190468D01*
X751048Y1188802D01*
X749382D01*
X747716Y1190468D01*
X757712Y1188802D02*
X761044D01*
X759378D01*
Y1198798D01*
X757712Y1197132D01*
X874634Y1103548D02*
X871302D01*
X872968D01*
Y1095218D01*
X871302Y1093552D01*
X869635D01*
X867969Y1095218D01*
X882964Y1093552D02*
Y1103548D01*
X877966Y1098550D01*
X884631D01*
X869951Y872487D02*
X864873D01*
X867412D01*
Y859792D01*
X864873Y857253D01*
X862333D01*
X859794Y859792D01*
X875029Y869948D02*
X877568Y872487D01*
X882647D01*
X885186Y869948D01*
Y867409D01*
X882647Y864870D01*
X885186Y862331D01*
Y859792D01*
X882647Y857253D01*
X877568D01*
X875029Y859792D01*
Y862331D01*
X877568Y864870D01*
X875029Y867409D01*
Y869948D01*
X877568Y864870D02*
X882647D01*
X486414Y796288D02*
Y783592D01*
X488953Y781052D01*
X494032D01*
X496571Y783592D01*
Y796288D01*
X501649Y793748D02*
X504188Y796288D01*
X509267D01*
X511806Y793748D01*
Y791209D01*
X509267Y788670D01*
X506727D01*
X509267D01*
X511806Y786131D01*
Y783592D01*
X509267Y781052D01*
X504188D01*
X501649Y783592D01*
X532757Y748001D02*
X532624Y757997D01*
X537621Y758064D01*
X539310Y756420D01*
X539354Y753088D01*
X537710Y751400D01*
X532712Y751333D01*
X536044Y751377D02*
X539421Y748090D01*
X549283Y758219D02*
X545974Y756508D01*
X542686Y753132D01*
X542730Y749800D01*
X544418Y748156D01*
X547751Y748201D01*
X549394Y749889D01*
X549372Y751555D01*
X547684Y753199D01*
X542686Y753132D01*
X725174Y731523D02*
Y746758D01*
X732792D01*
X735331Y744218D01*
Y739140D01*
X732792Y736601D01*
X725174D01*
X730253D02*
X735331Y731523D01*
X748027D02*
Y746758D01*
X740409Y739140D01*
X750566D01*
X767084Y732793D02*
Y748027D01*
X774702D01*
X777241Y745488D01*
Y740410D01*
X774702Y737871D01*
X767084D01*
X772162D02*
X777241Y732793D01*
X782319Y745488D02*
X784858Y748027D01*
X789937D01*
X792476Y745488D01*
Y742949D01*
X789937Y740410D01*
X787398D01*
X789937D01*
X792476Y737871D01*
Y735332D01*
X789937Y732793D01*
X784858D01*
X782319Y735332D01*
X658379Y819942D02*
X656712Y821608D01*
X653380D01*
X651714Y819942D01*
Y813278D01*
X653380Y811612D01*
X656712D01*
X658379Y813278D01*
X661711Y811612D02*
X665043D01*
X663377D01*
Y821608D01*
X661711Y819942D01*
X670042D02*
X671708Y821608D01*
X675040D01*
X676706Y819942D01*
Y813278D01*
X675040Y811612D01*
X671708D01*
X670042Y813278D01*
Y819942D01*
X595234Y770412D02*
X593568Y772078D01*
X590235D01*
X588569Y770412D01*
Y763748D01*
X590235Y762082D01*
X593568D01*
X595234Y763748D01*
X598566D02*
X600232Y762082D01*
X603564D01*
X605231Y763748D01*
Y770412D01*
X603564Y772078D01*
X600232D01*
X598566Y770412D01*
Y768746D01*
X600232Y767080D01*
X605231D01*
X280676Y967738D02*
Y952503D01*
X288293D01*
X290833Y955042D01*
Y957581D01*
X288293Y960120D01*
X280676D01*
X288293D01*
X290833Y962659D01*
Y965198D01*
X288293Y967738D01*
X280676D01*
X295911D02*
X306068D01*
X300989D01*
Y952503D01*
X311146D02*
X316224D01*
X313685D01*
Y967738D01*
X311146Y965198D01*
X274324Y1252217D02*
Y1236982D01*
X281942D01*
X284481Y1239522D01*
Y1242061D01*
X281942Y1244600D01*
X274324D01*
X281942D01*
X284481Y1247139D01*
Y1249678D01*
X281942Y1252217D01*
X274324D01*
X289559D02*
X299716D01*
X294638D01*
Y1236982D01*
X684531Y883917D02*
X679453D01*
X681992D01*
Y871222D01*
X679453Y868682D01*
X676913D01*
X674374Y871222D01*
X689609D02*
X692148Y868682D01*
X697227D01*
X699766Y871222D01*
Y881378D01*
X697227Y883917D01*
X692148D01*
X689609Y881378D01*
Y878839D01*
X692148Y876300D01*
X699766D01*
X541021Y1089658D02*
X535942D01*
X538482D01*
Y1076962D01*
X535942Y1074423D01*
X533403D01*
X530864Y1076962D01*
X546099Y1089658D02*
X556256D01*
Y1087118D01*
X546099Y1076962D01*
Y1074423D01*
X444501Y1220468D02*
X439422D01*
X441962D01*
Y1207772D01*
X439422Y1205232D01*
X436883D01*
X434344Y1207772D01*
X449579Y1217928D02*
X452118Y1220468D01*
X457197D01*
X459736Y1217928D01*
Y1215389D01*
X457197Y1212850D01*
X454658D01*
X457197D01*
X459736Y1210311D01*
Y1207772D01*
X457197Y1205232D01*
X452118D01*
X449579Y1207772D01*
X444501Y1164587D02*
X439422D01*
X441962D01*
Y1151892D01*
X439422Y1149352D01*
X436883D01*
X434344Y1151892D01*
X459736Y1164587D02*
X449579D01*
Y1156970D01*
X454658Y1159509D01*
X457197D01*
X459736Y1156970D01*
Y1151892D01*
X457197Y1149352D01*
X452118D01*
X449579Y1151892D01*
X541894Y1126408D02*
X538562D01*
X540228D01*
Y1118078D01*
X538562Y1116412D01*
X536895D01*
X535229Y1118078D01*
X551891Y1126408D02*
X548558Y1124742D01*
X545226Y1121410D01*
Y1118078D01*
X546892Y1116412D01*
X550224D01*
X551891Y1118078D01*
Y1119744D01*
X550224Y1121410D01*
X545226D01*
X735334Y908047D02*
Y895352D01*
X737873Y892812D01*
X742952D01*
X745491Y895352D01*
Y908047D01*
X760726D02*
X750569D01*
Y900430D01*
X755648Y902969D01*
X758187D01*
X760726Y900430D01*
Y895352D01*
X758187Y892812D01*
X753108D01*
X750569Y895352D01*
X514354Y979167D02*
Y966472D01*
X516893Y963932D01*
X521972D01*
X524511Y966472D01*
Y979167D01*
X537207Y963932D02*
Y979167D01*
X529589Y971550D01*
X539746D01*
X811536Y958852D02*
Y974088D01*
X819154D01*
X821693Y971548D01*
Y966470D01*
X819154Y963931D01*
X811536D01*
X816615D02*
X821693Y958852D01*
X826771D02*
X831850D01*
X829310D01*
Y974088D01*
X826771Y971548D01*
X839467D02*
X842006Y974088D01*
X847085D01*
X849624Y971548D01*
Y961392D01*
X847085Y958852D01*
X842006D01*
X839467Y961392D01*
Y971548D01*
X738255Y953773D02*
Y969007D01*
X745873D01*
X748412Y966468D01*
Y961390D01*
X745873Y958851D01*
X738255D01*
X743334D02*
X748412Y953773D01*
X753491Y966468D02*
X756030Y969007D01*
X761108D01*
X763647Y966468D01*
Y963929D01*
X761108Y961390D01*
X763647Y958851D01*
Y956312D01*
X761108Y953773D01*
X756030D01*
X753491Y956312D01*
Y958851D01*
X756030Y961390D01*
X753491Y963929D01*
Y966468D01*
X756030Y961390D02*
X761108D01*
X620014Y957580D02*
Y972815D01*
X627631D01*
X630171Y970276D01*
Y965198D01*
X627631Y962658D01*
X620014D01*
X625092D02*
X630171Y957580D01*
X635249Y972815D02*
X645406D01*
Y970276D01*
X635249Y960119D01*
Y957580D01*
X681482D02*
Y972815D01*
X689100D01*
X691639Y970276D01*
Y965198D01*
X689100Y962658D01*
X681482D01*
X686560D02*
X691639Y957580D01*
X706874Y972815D02*
X696717D01*
Y965198D01*
X701795Y967737D01*
X704335D01*
X706874Y965198D01*
Y960119D01*
X704335Y957580D01*
X699256D01*
X696717Y960119D01*
X447981Y1068152D02*
Y1078148D01*
X452979D01*
X454645Y1076482D01*
Y1073150D01*
X452979Y1071484D01*
X447981D01*
X451313D02*
X454645Y1068152D01*
X464642D02*
X457977D01*
X464642Y1074816D01*
Y1076482D01*
X462976Y1078148D01*
X459644D01*
X457977Y1076482D01*
X585473Y886462D02*
Y901697D01*
X593091D01*
X595630Y899158D01*
Y894080D01*
X593091Y891541D01*
X585473D01*
X590552D02*
X595630Y886462D01*
X600708D02*
X605787D01*
X603248D01*
Y901697D01*
X600708Y899158D01*
X425447Y1001264D02*
X422907Y1003803D01*
X417829D01*
X415290Y1001264D01*
Y991107D01*
X417829Y988568D01*
X422907D01*
X425447Y991107D01*
X430525Y1001264D02*
X433064Y1003803D01*
X438143D01*
X440682Y1001264D01*
Y998725D01*
X438143Y996186D01*
X440682Y993646D01*
Y991107D01*
X438143Y988568D01*
X433064D01*
X430525Y991107D01*
Y993646D01*
X433064Y996186D01*
X430525Y998725D01*
Y1001264D01*
X433064Y996186D02*
X438143D01*
X681479Y1156966D02*
X678940Y1159505D01*
X673861D01*
X671322Y1156966D01*
Y1146809D01*
X673861Y1144270D01*
X678940D01*
X681479Y1146809D01*
X686557Y1159505D02*
X696714D01*
Y1156966D01*
X686557Y1146809D01*
Y1144270D01*
X448310Y896618D02*
X445771Y899157D01*
X440692D01*
X438153Y896618D01*
Y886462D01*
X440692Y883923D01*
X445771D01*
X448310Y886462D01*
X453388Y883923D02*
X458467D01*
X455928D01*
Y899157D01*
X453388Y896618D01*
M02*
