G04*
G04 #@! TF.GenerationSoftware,Altium Limited,Altium Designer,24.6.1 (21)*
G04*
G04 Layer_Color=16711935*
%FSLAX44Y44*%
%MOMM*%
G71*
G04*
G04 #@! TF.SameCoordinates,CA4F1A14-4193-417A-A47F-E77CBFA95546*
G04*
G04*
G04 #@! TF.FilePolarity,Positive*
G04*
G01*
G75*
%ADD11C,0.2000*%
%ADD12C,0.1270*%
%ADD45C,0.1000*%
D11*
X766830Y1277590D02*
G03*
X766830Y1277590I-1000J0D01*
G01*
D12*
X768830Y1269590D02*
X828830D01*
Y1124590D02*
Y1269590D01*
X768830Y1124590D02*
X828830D01*
X768830D02*
Y1269590D01*
X823830D02*
Y1294590D01*
X773830D02*
X823830D01*
X773830Y1269590D02*
Y1294590D01*
X420370Y1018550D02*
Y1229350D01*
X267970Y1018550D02*
X420370D01*
X267970D02*
Y1229350D01*
X420370D01*
X355170Y1229550D02*
Y1235700D01*
X333170D02*
X355170D01*
X333170Y1229550D02*
Y1235700D01*
Y1012200D02*
X355170D01*
X333170D02*
Y1018350D01*
X355170Y1012200D02*
Y1018350D01*
X420370Y726450D02*
Y937250D01*
X267970Y726450D02*
X420370D01*
X267970D02*
Y937250D01*
X420370D01*
X355170Y937450D02*
Y943600D01*
X333170D02*
X355170D01*
X333170Y937450D02*
Y943600D01*
Y720100D02*
X355170D01*
X333170D02*
Y726250D01*
X355170Y720100D02*
Y726250D01*
D45*
X829680Y766350D02*
X844180D01*
X829680Y788350D02*
X844180D01*
X829680Y766350D02*
Y788350D01*
X844180Y766350D02*
Y788350D01*
X674740Y1182690D02*
X689240D01*
X674740Y1204690D02*
X689240D01*
X674740Y1182690D02*
Y1204690D01*
X689240Y1182690D02*
Y1204690D01*
X617590Y1182690D02*
X632090D01*
X617590Y1204690D02*
X632090D01*
X617590Y1182690D02*
Y1204690D01*
X632090Y1182690D02*
Y1204690D01*
X565520Y1182690D02*
X580020D01*
X565520Y1204690D02*
X580020D01*
X565520Y1182690D02*
Y1204690D01*
X580020Y1182690D02*
Y1204690D01*
X617590Y1103950D02*
X632090D01*
X617590Y1125950D02*
X632090D01*
X617590Y1103950D02*
Y1125950D01*
X632090Y1103950D02*
Y1125950D01*
X565520Y1103950D02*
X580020D01*
X565520Y1125950D02*
X580020D01*
X565520Y1103950D02*
Y1125950D01*
X580020Y1103950D02*
Y1125950D01*
X654480Y798460D02*
X676480D01*
X654480Y783960D02*
X676480D01*
X654480D02*
Y798460D01*
X676480Y783960D02*
Y798460D01*
X587170Y783960D02*
X609170D01*
X587170Y798460D02*
X609170D01*
Y783960D02*
Y798460D01*
X587170Y783960D02*
Y798460D01*
X443770Y873390D02*
X465770D01*
X443770Y858890D02*
X465770D01*
X443770D02*
Y873390D01*
X465770Y858890D02*
Y873390D01*
X423450Y960490D02*
X445450D01*
X423450Y974990D02*
X445450D01*
Y960490D02*
Y974990D01*
X423450Y960490D02*
Y974990D01*
X689240Y1103950D02*
Y1125950D01*
X674740Y1103950D02*
Y1125950D01*
X689240D01*
X674740Y1103950D02*
X689240D01*
M02*
