G04*
G04 #@! TF.GenerationSoftware,Altium Limited,Altium Designer,24.6.1 (21)*
G04*
G04 Layer_Color=2752767*
%FSLAX44Y44*%
%MOMM*%
G71*
G04*
G04 #@! TF.SameCoordinates,CA4F1A14-4193-417A-A47F-E77CBFA95546*
G04*
G04*
G04 #@! TF.FilePolarity,Positive*
G04*
G01*
G75*
%ADD12C,0.1270*%
%ADD47C,0.1693*%
D12*
X711200Y1088390D02*
Y1098550D01*
X721360D01*
Y1088390D01*
X711200D01*
Y1062990D02*
Y1073150D01*
X721360D01*
Y1062990D01*
X711200D01*
X772160D02*
Y1073150D01*
X782320D01*
Y1062990D01*
X772160D01*
Y1088390D02*
Y1098550D01*
X782320D01*
Y1088390D01*
X772160D01*
X842010Y1062990D02*
Y1073150D01*
X852170D01*
Y1062990D01*
X842010D01*
Y1088390D02*
Y1098550D01*
X852170D01*
Y1088390D01*
X842010D01*
X344170Y1226870D02*
X339090Y1237030D01*
X349250D01*
X344170Y1226870D01*
Y1010870D02*
X339090Y1021030D01*
X349250D01*
X344170Y1010870D01*
Y934770D02*
X339090Y944930D01*
X349250D01*
X344170Y934770D01*
Y718770D02*
X339090Y728930D01*
X349250D01*
X344170Y718770D01*
X831850Y872490D02*
Y882650D01*
X842010D01*
Y872490D01*
X831850D01*
Y847090D02*
Y857250D01*
X842010D01*
Y847090D01*
X831850D01*
X528320Y1047750D02*
Y1057910D01*
X538480D01*
Y1047750D01*
X528320D01*
X553720D02*
Y1057910D01*
X563880D01*
Y1047750D01*
X553720D01*
X650240Y838200D02*
Y848360D01*
X660400D01*
Y838200D01*
X650240D01*
Y863600D02*
Y873760D01*
X660400D01*
Y863600D01*
X650240D01*
X506730Y1100870D02*
Y1111030D01*
X516890D01*
Y1100870D01*
X506730D01*
Y1206500D02*
Y1216660D01*
X516890D01*
Y1206500D01*
X506730D01*
X481330D02*
Y1216660D01*
X491490D01*
Y1206500D01*
X481330D01*
X506730Y1151890D02*
Y1162050D01*
X516890D01*
Y1151890D01*
X506730D01*
X481330D02*
Y1162050D01*
X491490D01*
Y1151890D01*
X481330D01*
Y1100870D02*
Y1111030D01*
X491490D01*
Y1100870D01*
X481330D01*
X561340Y840740D02*
X563880Y843280D01*
X566420D01*
X563880Y845820D01*
X566420Y848360D01*
X563880D01*
X561340Y850900D01*
X558800Y848360D01*
X556260D01*
X558800Y845820D01*
X556260Y843280D01*
X558800D01*
X561340Y840740D01*
X544830Y909320D02*
X547370Y911860D01*
X549910D01*
X547370Y914400D01*
X549910Y916940D01*
X547370D01*
X544830Y919480D01*
X542290Y916940D01*
X539750D01*
X542290Y914400D01*
X539750Y911860D01*
X542290D01*
X544830Y909320D01*
X344170Y763270D02*
X346710Y765810D01*
X349250D01*
X346710Y768350D01*
X349250Y770890D01*
X346710D01*
X344170Y773430D01*
X341630Y770890D01*
X339090D01*
X341630Y768350D01*
X339090Y765810D01*
X341630D01*
X344170Y763270D01*
Y894080D02*
X346710Y896620D01*
X349250D01*
X346710Y899160D01*
X349250Y901700D01*
X346710D01*
X344170Y904240D01*
X341630Y901700D01*
X339090D01*
X341630Y899160D01*
X339090Y896620D01*
X341630D01*
X344170Y894080D01*
X485140Y873760D02*
X487680Y876300D01*
X490220D01*
X487680Y878840D01*
X490220Y881380D01*
X487680D01*
X485140Y883920D01*
X482600Y881380D01*
X480060D01*
X482600Y878840D01*
X480060Y876300D01*
X482600D01*
X485140Y873760D01*
X506730Y887730D02*
X509270Y890270D01*
X511810D01*
X509270Y892810D01*
X511810Y895350D01*
X509270D01*
X506730Y897890D01*
X504190Y895350D01*
X501650D01*
X504190Y892810D01*
X501650Y890270D01*
X504190D01*
X506730Y887730D01*
X447040Y797560D02*
X449580Y800100D01*
X452120D01*
X449580Y802640D01*
X452120Y805180D01*
X449580D01*
X447040Y807720D01*
X444500Y805180D01*
X441960D01*
X444500Y802640D01*
X441960Y800100D01*
X444500D01*
X447040Y797560D01*
X589280Y1027430D02*
X591820Y1029970D01*
X594360D01*
X591820Y1032510D01*
X594360Y1035050D01*
X591820D01*
X589280Y1037590D01*
X586740Y1035050D01*
X584200D01*
X586740Y1032510D01*
X584200Y1029970D01*
X586740D01*
X589280Y1027430D01*
X656590Y1054100D02*
X659130Y1056640D01*
X661670D01*
X659130Y1059180D01*
X661670Y1061720D01*
X659130D01*
X656590Y1064260D01*
X654050Y1061720D01*
X651510D01*
X654050Y1059180D01*
X651510Y1056640D01*
X654050D01*
X656590Y1054100D01*
X373380Y1174750D02*
X375920Y1177290D01*
X378460D01*
X375920Y1179830D01*
X378460Y1182370D01*
X375920D01*
X373380Y1184910D01*
X370840Y1182370D01*
X368300D01*
X370840Y1179830D01*
X368300Y1177290D01*
X370840D01*
X373380Y1174750D01*
X452120Y1123950D02*
X454660Y1126490D01*
X457200D01*
X454660Y1129030D01*
X457200Y1131570D01*
X454660D01*
X452120Y1134110D01*
X449580Y1131570D01*
X447040D01*
X449580Y1129030D01*
X447040Y1126490D01*
X449580D01*
X452120Y1123950D01*
X495300Y1068070D02*
X497840Y1070610D01*
X500380D01*
X497840Y1073150D01*
X500380Y1075690D01*
X497840D01*
X495300Y1078230D01*
X492760Y1075690D01*
X490220D01*
X492760Y1073150D01*
X490220Y1070610D01*
X492760D01*
X495300Y1068070D01*
X482600Y938530D02*
X485140Y941070D01*
X487680D01*
X485140Y943610D01*
X487680Y946150D01*
X485140D01*
X482600Y948690D01*
X480060Y946150D01*
X477520D01*
X480060Y943610D01*
X477520Y941070D01*
X480060D01*
X482600Y938530D01*
X467360Y736600D02*
X469900Y739140D01*
X472440D01*
X469900Y741680D01*
X472440Y744220D01*
X469900D01*
X467360Y746760D01*
X464820Y744220D01*
X462280D01*
X464820Y741680D01*
X462280Y739140D01*
X464820D01*
X467360Y736600D01*
X664210Y1242060D02*
X666750Y1244600D01*
X669290D01*
X666750Y1247140D01*
X669290Y1249680D01*
X666750D01*
X664210Y1252220D01*
X661670Y1249680D01*
X659130D01*
X661670Y1247140D01*
X659130Y1244600D01*
X661670D01*
X664210Y1242060D01*
X708660Y858370D02*
X711200Y860910D01*
X713740D01*
X711200Y863450D01*
X713740Y865990D01*
X711200D01*
X708660Y868530D01*
X706120Y865990D01*
X703580D01*
X706120Y863450D01*
X703580Y860910D01*
X706120D01*
X708660Y858370D01*
X782320Y885190D02*
X784860Y887730D01*
X787400D01*
X784860Y890270D01*
X787400Y892810D01*
X784860D01*
X782320Y895350D01*
X779780Y892810D01*
X777240D01*
X779780Y890270D01*
X777240Y887730D01*
X779780D01*
X782320Y885190D01*
X784860Y864870D02*
X787400Y867410D01*
X789940D01*
X787400Y869950D01*
X789940Y872490D01*
X787400D01*
X784860Y875030D01*
X782320Y872490D01*
X779780D01*
X782320Y869950D01*
X779780Y867410D01*
X782320D01*
X784860Y864870D01*
D47*
X803910Y1234590D02*
G03*
X803910Y1234590I-5080J0D01*
G01*
Y1164590D02*
G03*
X803910Y1164590I-5080J0D01*
G01*
M02*
