G04*
G04 #@! TF.GenerationSoftware,Altium Limited,Altium Designer,24.6.1 (21)*
G04*
G04 Layer_Color=32768*
%FSLAX44Y44*%
%MOMM*%
G71*
G04*
G04 #@! TF.SameCoordinates,CA4F1A14-4193-417A-A47F-E77CBFA95546*
G04*
G04*
G04 #@! TF.FilePolarity,Positive*
G04*
G01*
G75*
%ADD45C,0.1000*%
%ADD46C,0.0500*%
D45*
X836930Y772350D02*
Y782350D01*
X831930Y777350D02*
X841930D01*
X681990Y1188690D02*
Y1198690D01*
X676990Y1193690D02*
X686990D01*
X624840Y1188690D02*
Y1198690D01*
X619840Y1193690D02*
X629840D01*
X572770Y1188690D02*
Y1198690D01*
X567770Y1193690D02*
X577770D01*
X624840Y1109950D02*
Y1119950D01*
X619840Y1114950D02*
X629840D01*
X572770Y1109950D02*
Y1119950D01*
X567770Y1114950D02*
X577770D01*
X665480Y786210D02*
Y796210D01*
X660480Y791210D02*
X670480D01*
X598170Y786210D02*
Y796210D01*
X593170Y791210D02*
X603170D01*
X454770Y861140D02*
Y871140D01*
X449770Y866140D02*
X459770D01*
X434450Y962740D02*
Y972740D01*
X429450Y967740D02*
X439450D01*
X676990Y1114950D02*
X686990D01*
X681990Y1109950D02*
Y1119950D01*
D46*
X823930Y755850D02*
X849930D01*
X823930Y798850D02*
X849930D01*
X823930Y755850D02*
Y798850D01*
X849930Y755850D02*
Y798850D01*
X668990Y1172190D02*
X694990D01*
X668990Y1215190D02*
X694990D01*
X668990Y1172190D02*
Y1215190D01*
X694990Y1172190D02*
Y1215190D01*
X611840Y1172190D02*
X637840D01*
X611840Y1215190D02*
X637840D01*
X611840Y1172190D02*
Y1215190D01*
X637840Y1172190D02*
Y1215190D01*
X559770Y1172190D02*
X585770D01*
X559770Y1215190D02*
X585770D01*
X559770Y1172190D02*
Y1215190D01*
X585770Y1172190D02*
Y1215190D01*
X611840Y1093450D02*
X637840D01*
X611840Y1136450D02*
X637840D01*
X611840Y1093450D02*
Y1136450D01*
X637840Y1093450D02*
Y1136450D01*
X559770Y1093450D02*
X585770D01*
X559770Y1136450D02*
X585770D01*
X559770Y1093450D02*
Y1136450D01*
X585770Y1093450D02*
Y1136450D01*
X852330Y1122090D02*
Y1272090D01*
X745330Y1122090D02*
X852330D01*
X745330D02*
Y1272090D01*
X826330D02*
X852330D01*
X826330D02*
Y1297090D01*
X771330D02*
X826330D01*
X771330Y1272090D02*
Y1297090D01*
X745330Y1272090D02*
X771330D01*
X422870Y1016050D02*
Y1231850D01*
X361670Y1016450D02*
X422870Y1016050D01*
X361670Y998950D02*
Y1016450D01*
X326670Y998950D02*
X361670D01*
X326670D02*
Y1016050D01*
X265470D02*
X326670D01*
X265470D02*
Y1231850D01*
X326670D01*
Y1248950D01*
X361670D01*
Y1231850D02*
Y1248950D01*
Y1231850D02*
X422870D01*
Y723950D02*
Y939750D01*
X361670Y724350D02*
X422870Y723950D01*
X361670Y706850D02*
Y724350D01*
X326670Y706850D02*
X361670D01*
X326670D02*
Y723950D01*
X265470D02*
X326670D01*
X265470D02*
Y939750D01*
X326670D01*
Y956850D01*
X361670D01*
Y939750D02*
Y956850D01*
Y939750D02*
X422870D01*
X643980Y804210D02*
X686980D01*
X643980Y778210D02*
X686980D01*
X643980D02*
Y804210D01*
X686980Y778210D02*
Y804210D01*
X576670Y778210D02*
X619670D01*
X576670Y804210D02*
X619670D01*
Y778210D02*
Y804210D01*
X576670Y778210D02*
Y804210D01*
X433270Y879140D02*
X476270D01*
X433270Y853140D02*
X476270D01*
X433270D02*
Y879140D01*
X476270Y853140D02*
Y879140D01*
X412950Y954740D02*
X455950D01*
X412950Y980740D02*
X455950D01*
Y954740D02*
Y980740D01*
X412950Y954740D02*
Y980740D01*
X694990Y1093450D02*
Y1136450D01*
X668990Y1093450D02*
Y1136450D01*
X694990D01*
X668990Y1093450D02*
X694990D01*
M02*
