M48
;Layer_Color=9474304
;FILE_FORMAT=4:4
METRIC,LZ
;TYPE=PLATED
T01F00S00C0.3000
T02F00S00C1.0200
T03F00S00C2.0000
;TYPE=NON_PLATED
T04F00S00C1.7000
%
T01
X0046736Y0074168
X0034417Y0076835
Y0089916
X0037338Y0117983
X0045212Y0112903
X004953Y0107315
X0058928Y0103251
X0065659Y0105918
X0070866Y0086345
X0078486Y0086995
X0078232Y0089027
X0054483Y009144
X0050673Y0089281
X0048514Y0087884
X004826Y0094361
X0056134Y0084582
X0044704Y0080264
X0066421Y0124714
T02
X0065532Y0084328
Y0086868
X0071628Y0106807
Y0109347
X0077724
Y0106807
X005588Y0105283
X005334
X0051181Y0110595
X0048641
Y0115697
X0051181
X0084709Y0109347
Y0106807
X0083693Y0087757
Y0085217
X0051181Y0121158
X0048641
T03
X0034417Y0072385
Y0093985
Y0101595
Y0123195
T04
X0079883Y0116459
Y0123459
M30
