G04*
G04 #@! TF.GenerationSoftware,Altium Limited,Altium Designer,24.6.1 (21)*
G04*
G04 Layer_Physical_Order=2*
G04 Layer_Color=16711680*
%FSLAX44Y44*%
%MOMM*%
G71*
G04*
G04 #@! TF.SameCoordinates,CA4F1A14-4193-417A-A47F-E77CBFA95546*
G04*
G04*
G04 #@! TF.FilePolarity,Positive*
G04*
G01*
G75*
%ADD35C,1.5700*%
%ADD36R,1.5700X1.5700*%
%ADD39R,1.5700X1.5700*%
%ADD41C,0.5000*%
%ADD42C,1.7000*%
%ADD43C,3.0000*%
%ADD44C,0.6000*%
G36*
X889000Y701040D02*
X252730D01*
Y1268730D01*
X889000D01*
Y701040D01*
D02*
G37*
%LPC*%
G36*
X345795Y1248450D02*
X342545D01*
X339357Y1247816D01*
X336354Y1246572D01*
X333652Y1244766D01*
X331354Y1242468D01*
X329548Y1239766D01*
X328304Y1236763D01*
X327670Y1233575D01*
Y1230325D01*
X328304Y1227137D01*
X329548Y1224134D01*
X331354Y1221432D01*
X333652Y1219134D01*
X336354Y1217328D01*
X339357Y1216084D01*
X342545Y1215450D01*
X345795D01*
X348983Y1216084D01*
X351986Y1217328D01*
X354688Y1219134D01*
X356986Y1221432D01*
X358792Y1224134D01*
X360036Y1227137D01*
X360670Y1230325D01*
Y1233575D01*
X360036Y1236763D01*
X358792Y1239766D01*
X356986Y1242468D01*
X354688Y1244766D01*
X351986Y1246572D01*
X348983Y1247816D01*
X345795Y1248450D01*
D02*
G37*
G36*
X513041Y1220930D02*
X510579D01*
X508201Y1220293D01*
X506069Y1219062D01*
X504328Y1217321D01*
X503097Y1215189D01*
X502460Y1212811D01*
Y1210349D01*
X503097Y1207971D01*
X504328Y1205839D01*
X506069Y1204098D01*
X508201Y1202867D01*
X510579Y1202230D01*
X513041D01*
X515419Y1202867D01*
X517551Y1204098D01*
X519292Y1205839D01*
X520523Y1207971D01*
X521160Y1210349D01*
Y1212811D01*
X520523Y1215189D01*
X519292Y1217321D01*
X517551Y1219062D01*
X515419Y1220293D01*
X513041Y1220930D01*
D02*
G37*
G36*
X495760D02*
X477060D01*
Y1202230D01*
X495760D01*
Y1220930D01*
D02*
G37*
G36*
X374650Y1185300D02*
Y1181100D01*
X378850D01*
X378077Y1182968D01*
X376518Y1184527D01*
X374650Y1185300D01*
D02*
G37*
G36*
X372110D02*
X370242Y1184527D01*
X368683Y1182968D01*
X367910Y1181100D01*
X372110D01*
Y1185300D01*
D02*
G37*
G36*
X378850Y1178560D02*
X374650D01*
Y1174360D01*
X376518Y1175133D01*
X378077Y1176692D01*
X378850Y1178560D01*
D02*
G37*
G36*
X372110D02*
X367910D01*
X368683Y1176692D01*
X370242Y1175133D01*
X372110Y1174360D01*
Y1178560D01*
D02*
G37*
G36*
X496800Y1167360D02*
X487680D01*
Y1158240D01*
X496800D01*
Y1167360D01*
D02*
G37*
G36*
X485140D02*
X476020D01*
Y1158240D01*
X485140D01*
Y1167360D01*
D02*
G37*
G36*
X800146Y1174590D02*
X797514D01*
X794970Y1173908D01*
X792690Y1172592D01*
X790828Y1170730D01*
X789511Y1168450D01*
X788830Y1165907D01*
Y1163273D01*
X789511Y1160730D01*
X790828Y1158450D01*
X792690Y1156588D01*
X794970Y1155272D01*
X797514Y1154590D01*
X800146D01*
X802690Y1155272D01*
X804970Y1156588D01*
X806832Y1158450D01*
X808148Y1160730D01*
X808830Y1163273D01*
Y1165907D01*
X808148Y1168450D01*
X806832Y1170730D01*
X804970Y1172592D01*
X802690Y1173908D01*
X800146Y1174590D01*
D02*
G37*
G36*
X513041Y1166320D02*
X510579D01*
X508201Y1165683D01*
X506069Y1164452D01*
X504328Y1162711D01*
X503097Y1160579D01*
X502460Y1158201D01*
Y1155739D01*
X503097Y1153361D01*
X504328Y1151229D01*
X506069Y1149488D01*
X508201Y1148257D01*
X510579Y1147620D01*
X513041D01*
X515419Y1148257D01*
X517551Y1149488D01*
X519292Y1151229D01*
X520523Y1153361D01*
X521160Y1155739D01*
Y1158201D01*
X520523Y1160579D01*
X519292Y1162711D01*
X517551Y1164452D01*
X515419Y1165683D01*
X513041Y1166320D01*
D02*
G37*
G36*
X496800Y1155700D02*
X487680D01*
Y1146580D01*
X496800D01*
Y1155700D01*
D02*
G37*
G36*
X485140D02*
X476020D01*
Y1146580D01*
X485140D01*
Y1155700D01*
D02*
G37*
G36*
X453390Y1134500D02*
Y1130300D01*
X457590D01*
X456817Y1132168D01*
X455258Y1133727D01*
X453390Y1134500D01*
D02*
G37*
G36*
X450850D02*
X448982Y1133727D01*
X447423Y1132168D01*
X446650Y1130300D01*
X450850D01*
Y1134500D01*
D02*
G37*
G36*
X457590Y1127760D02*
X453390D01*
Y1123560D01*
X455258Y1124333D01*
X456817Y1125892D01*
X457590Y1127760D01*
D02*
G37*
G36*
X450850D02*
X446650D01*
X447423Y1125892D01*
X448982Y1124333D01*
X450850Y1123560D01*
Y1127760D01*
D02*
G37*
G36*
X513041Y1115300D02*
X510579D01*
X508201Y1114663D01*
X506069Y1113432D01*
X504328Y1111691D01*
X503097Y1109559D01*
X502460Y1107181D01*
Y1104719D01*
X503097Y1102341D01*
X504328Y1100209D01*
X506069Y1098468D01*
X508201Y1097237D01*
X510579Y1096600D01*
X513041D01*
X515419Y1097237D01*
X517551Y1098468D01*
X519292Y1100209D01*
X520523Y1102341D01*
X521160Y1104719D01*
Y1107181D01*
X520523Y1109559D01*
X519292Y1111691D01*
X517551Y1113432D01*
X515419Y1114663D01*
X513041Y1115300D01*
D02*
G37*
G36*
X495760D02*
X477060D01*
Y1096600D01*
X495760D01*
Y1115300D01*
D02*
G37*
G36*
X856440Y1102820D02*
X837740D01*
Y1084120D01*
X856440D01*
Y1102820D01*
D02*
G37*
G36*
X786590D02*
X767890D01*
Y1084120D01*
X786590D01*
Y1102820D01*
D02*
G37*
G36*
X717511D02*
X715049D01*
X712671Y1102183D01*
X710539Y1100952D01*
X708798Y1099211D01*
X707567Y1097079D01*
X706930Y1094701D01*
Y1092239D01*
X707567Y1089861D01*
X708798Y1087729D01*
X710539Y1085988D01*
X712671Y1084757D01*
X715049Y1084120D01*
X717511D01*
X719889Y1084757D01*
X722021Y1085988D01*
X723762Y1087729D01*
X724993Y1089861D01*
X725630Y1092239D01*
Y1094701D01*
X724993Y1097079D01*
X723762Y1099211D01*
X722021Y1100952D01*
X719889Y1102183D01*
X717511Y1102820D01*
D02*
G37*
G36*
X496195Y1077650D02*
X494405D01*
X493387Y1077228D01*
X463550D01*
Y1077237D01*
X460027Y1076890D01*
X456640Y1075862D01*
X453518Y1074194D01*
X450782Y1071948D01*
X448536Y1069212D01*
X446868Y1066090D01*
X445840Y1062703D01*
X445493Y1059180D01*
X445502D01*
Y969010D01*
X445489D01*
X445852Y964397D01*
X446932Y959897D01*
X448703Y955621D01*
X451121Y951676D01*
X454127Y948157D01*
X457646Y945151D01*
X458343Y944724D01*
X458634Y941028D01*
X457198Y939802D01*
X454453Y936587D01*
X452244Y932982D01*
X450626Y929076D01*
X449639Y924965D01*
X449342Y921192D01*
X449307Y920750D01*
X449299Y918210D01*
D01*
X449334Y917761D01*
X449662Y913597D01*
X450742Y909097D01*
X452513Y904821D01*
X454931Y900876D01*
X455775Y899888D01*
X454392Y896888D01*
X440690D01*
Y896934D01*
X435673Y896440D01*
X430850Y894977D01*
X426404Y892600D01*
X422508Y889402D01*
X419310Y885506D01*
X416934Y881060D01*
X415470Y876236D01*
X414976Y871220D01*
X415022D01*
Y767080D01*
X415009D01*
X415372Y762467D01*
X416452Y757967D01*
X418223Y753691D01*
X420641Y749746D01*
X423647Y746227D01*
X427166Y743221D01*
X431111Y740803D01*
X435387Y739033D01*
X439887Y737952D01*
X444500Y737589D01*
Y737602D01*
X465447D01*
X466465Y737180D01*
X468255D01*
X469273Y737602D01*
X759460D01*
Y737573D01*
X765964Y738000D01*
X772356Y739271D01*
X778528Y741366D01*
X784373Y744249D01*
X789793Y747870D01*
X794693Y752167D01*
X798990Y757067D01*
X802611Y762487D01*
X805494Y768332D01*
X807589Y774504D01*
X808860Y780896D01*
X809287Y787400D01*
X809258D01*
Y849630D01*
X809258Y849630D01*
X808948Y851191D01*
X808064Y852514D01*
X808064Y852514D01*
X789097Y871481D01*
X788675Y872499D01*
X787409Y873765D01*
X785755Y874450D01*
X783965D01*
X782311Y873765D01*
X781045Y872499D01*
X780360Y870845D01*
Y869055D01*
X781045Y867401D01*
X782311Y866135D01*
X783329Y865714D01*
X801102Y847941D01*
Y787400D01*
X801132Y787246D01*
X800786Y781959D01*
X799722Y776612D01*
X797969Y771449D01*
X795558Y766559D01*
X792529Y762026D01*
X788934Y757926D01*
X784835Y754331D01*
X780301Y751302D01*
X775411Y748891D01*
X770248Y747138D01*
X764901Y746074D01*
X759614Y745728D01*
X759460Y745758D01*
X469273D01*
X468255Y746180D01*
X466465D01*
X465447Y745758D01*
X444500D01*
X444318Y745722D01*
X440330Y746115D01*
X436320Y747331D01*
X432624Y749307D01*
X429385Y751965D01*
X426727Y755204D01*
X424751Y758900D01*
X423535Y762910D01*
X423142Y766898D01*
X423178Y767080D01*
Y871220D01*
X423154Y871341D01*
X423480Y874643D01*
X424478Y877935D01*
X426100Y880969D01*
X428282Y883628D01*
X430941Y885810D01*
X433975Y887432D01*
X437267Y888430D01*
X440569Y888756D01*
X440690Y888732D01*
X478631D01*
X478790Y888719D01*
Y888732D01*
X504817D01*
X505835Y888310D01*
X507625D01*
X509279Y888995D01*
X510545Y890261D01*
X511230Y891915D01*
Y893705D01*
X510545Y895359D01*
X509279Y896625D01*
X507625Y897310D01*
X505835D01*
X504817Y896888D01*
X478239D01*
X474620Y897245D01*
X470610Y898461D01*
X466914Y900437D01*
X463675Y903095D01*
X461017Y906334D01*
X459041Y910030D01*
X457825Y914040D01*
X457432Y918027D01*
X457468Y918210D01*
Y920750D01*
X457440Y920891D01*
X457788Y924422D01*
X458859Y927953D01*
X460599Y931208D01*
X462940Y934060D01*
X465792Y936401D01*
X469047Y938141D01*
X472578Y939212D01*
X475824Y939532D01*
X480687D01*
X481705Y939110D01*
X483495D01*
X485149Y939795D01*
X486415Y941061D01*
X487100Y942715D01*
Y944505D01*
X486415Y946159D01*
X485149Y947425D01*
X483495Y948110D01*
X481705D01*
X480687Y947688D01*
X476250D01*
Y947693D01*
X474980Y947688D01*
X474798Y947652D01*
X470810Y948045D01*
X466800Y949261D01*
X463104Y951237D01*
X459865Y953895D01*
X457207Y957134D01*
X455231Y960830D01*
X454015Y964840D01*
X453622Y968828D01*
X453658Y969010D01*
Y1059180D01*
X453637Y1059290D01*
X453960Y1061749D01*
X454952Y1064144D01*
X456530Y1066200D01*
X458586Y1067778D01*
X460980Y1068770D01*
X463440Y1069093D01*
X463550Y1069072D01*
X493387D01*
X494405Y1068650D01*
X496195D01*
X497849Y1069335D01*
X499115Y1070601D01*
X499800Y1072255D01*
Y1074045D01*
X499115Y1075699D01*
X497849Y1076965D01*
X496195Y1077650D01*
D02*
G37*
G36*
X657860Y1064650D02*
Y1060450D01*
X662060D01*
X661287Y1062318D01*
X659728Y1063877D01*
X657860Y1064650D01*
D02*
G37*
G36*
X655320D02*
X653452Y1063877D01*
X651893Y1062318D01*
X651120Y1060450D01*
X655320D01*
Y1064650D01*
D02*
G37*
G36*
X848321Y1077420D02*
X845859D01*
X843481Y1076783D01*
X841349Y1075552D01*
X839608Y1073811D01*
X838377Y1071679D01*
X837740Y1069301D01*
Y1066839D01*
X838377Y1064461D01*
X839608Y1062329D01*
X841349Y1060588D01*
X843481Y1059357D01*
X845859Y1058720D01*
X848321D01*
X850699Y1059357D01*
X852831Y1060588D01*
X854572Y1062329D01*
X855803Y1064461D01*
X856440Y1066839D01*
Y1069301D01*
X855803Y1071679D01*
X854572Y1073811D01*
X852831Y1075552D01*
X850699Y1076783D01*
X848321Y1077420D01*
D02*
G37*
G36*
X778471D02*
X776009D01*
X773631Y1076783D01*
X771499Y1075552D01*
X769758Y1073811D01*
X768527Y1071679D01*
X767890Y1069301D01*
Y1066839D01*
X768527Y1064461D01*
X769758Y1062329D01*
X771499Y1060588D01*
X773631Y1059357D01*
X776009Y1058720D01*
X778471D01*
X780849Y1059357D01*
X782981Y1060588D01*
X784722Y1062329D01*
X785953Y1064461D01*
X786590Y1066839D01*
Y1069301D01*
X785953Y1071679D01*
X784722Y1073811D01*
X782981Y1075552D01*
X780849Y1076783D01*
X778471Y1077420D01*
D02*
G37*
G36*
X725630D02*
X706930D01*
Y1058720D01*
X725630D01*
Y1077420D01*
D02*
G37*
G36*
X662060Y1057910D02*
X657860D01*
Y1053710D01*
X659728Y1054483D01*
X661287Y1056042D01*
X662060Y1057910D01*
D02*
G37*
G36*
X655320D02*
X651120D01*
X651893Y1056042D01*
X653452Y1054483D01*
X655320Y1053710D01*
Y1057910D01*
D02*
G37*
G36*
X568150Y1062180D02*
X549450D01*
Y1043480D01*
X568150D01*
Y1062180D01*
D02*
G37*
G36*
X534631D02*
X532169D01*
X529791Y1061543D01*
X527659Y1060312D01*
X525918Y1058571D01*
X524687Y1056439D01*
X524050Y1054061D01*
Y1051599D01*
X524687Y1049221D01*
X525918Y1047089D01*
X527659Y1045348D01*
X529791Y1044117D01*
X532169Y1043480D01*
X534631D01*
X537009Y1044117D01*
X539141Y1045348D01*
X540882Y1047089D01*
X542113Y1049221D01*
X542750Y1051599D01*
Y1054061D01*
X542113Y1056439D01*
X540882Y1058571D01*
X539141Y1060312D01*
X537009Y1061543D01*
X534631Y1062180D01*
D02*
G37*
G36*
X345795Y1032450D02*
X342545D01*
X339357Y1031816D01*
X336354Y1030572D01*
X333652Y1028766D01*
X331354Y1026468D01*
X329548Y1023766D01*
X328304Y1020763D01*
X327670Y1017575D01*
Y1014325D01*
X328304Y1011137D01*
X329548Y1008134D01*
X331354Y1005432D01*
X333652Y1003134D01*
X336354Y1001328D01*
X339357Y1000084D01*
X342545Y999450D01*
X345795D01*
X348983Y1000084D01*
X351986Y1001328D01*
X354688Y1003134D01*
X356986Y1005432D01*
X358792Y1008134D01*
X360036Y1011137D01*
X360670Y1014325D01*
Y1017575D01*
X360036Y1020763D01*
X358792Y1023766D01*
X356986Y1026468D01*
X354688Y1028766D01*
X351986Y1030572D01*
X348983Y1031816D01*
X345795Y1032450D01*
D02*
G37*
G36*
X345897Y957390D02*
X345440D01*
Y941120D01*
X361710D01*
Y941578D01*
X361036Y944966D01*
X359714Y948158D01*
X357794Y951031D01*
X355351Y953474D01*
X352478Y955394D01*
X349286Y956716D01*
X345897Y957390D01*
D02*
G37*
G36*
X342900D02*
X342443D01*
X339054Y956716D01*
X335862Y955394D01*
X332989Y953474D01*
X330546Y951031D01*
X328626Y948158D01*
X327304Y944966D01*
X326630Y941578D01*
Y941120D01*
X342900D01*
Y957390D01*
D02*
G37*
G36*
X361710Y938580D02*
X345440D01*
Y922310D01*
X345897D01*
X349286Y922984D01*
X352478Y924306D01*
X355351Y926226D01*
X357794Y928669D01*
X359714Y931542D01*
X361036Y934734D01*
X361710Y938122D01*
Y938580D01*
D02*
G37*
G36*
X342900D02*
X326630D01*
Y938122D01*
X327304Y934734D01*
X328626Y931542D01*
X330546Y928669D01*
X332989Y926226D01*
X335862Y924306D01*
X339054Y922984D01*
X342443Y922310D01*
X342900D01*
Y938580D01*
D02*
G37*
G36*
X665105Y1251640D02*
X663315D01*
X661661Y1250955D01*
X660395Y1249689D01*
X659710Y1248035D01*
Y1246245D01*
X660395Y1244591D01*
X661661Y1243325D01*
X663315Y1242640D01*
X665105D01*
X666123Y1243062D01*
X788917D01*
X789650Y1242167D01*
X790442Y1240062D01*
X789511Y1238450D01*
X788830Y1235907D01*
Y1233273D01*
X789511Y1230730D01*
X790828Y1228450D01*
X792690Y1226588D01*
X794970Y1225272D01*
X797514Y1224590D01*
X800146D01*
X802690Y1225272D01*
X804970Y1226588D01*
X806832Y1228450D01*
X808148Y1230730D01*
X808830Y1233273D01*
Y1235907D01*
X808148Y1238450D01*
X807218Y1240062D01*
X808010Y1242167D01*
X808743Y1243062D01*
X842010D01*
X842193Y1243098D01*
X846180Y1242705D01*
X850190Y1241489D01*
X853886Y1239513D01*
X857125Y1236855D01*
X859783Y1233616D01*
X861759Y1229920D01*
X862975Y1225910D01*
X863368Y1221923D01*
X863332Y1221740D01*
Y928370D01*
X863368Y928187D01*
X862975Y924200D01*
X861759Y920190D01*
X859783Y916494D01*
X857125Y913255D01*
X853886Y910597D01*
X850190Y908621D01*
X846180Y907405D01*
X842193Y907012D01*
X842010Y907048D01*
X593358D01*
Y1030597D01*
X593780Y1031615D01*
Y1033405D01*
X593095Y1035059D01*
X591829Y1036325D01*
X590175Y1037010D01*
X588385D01*
X586731Y1036325D01*
X585465Y1035059D01*
X584780Y1033405D01*
Y1031615D01*
X585202Y1030597D01*
Y902970D01*
Y871220D01*
X585238Y871038D01*
X584845Y867050D01*
X583629Y863040D01*
X581653Y859344D01*
X578995Y856105D01*
X575756Y853447D01*
X572060Y851471D01*
X568050Y850255D01*
X567211Y850172D01*
X564988Y852187D01*
Y898320D01*
X565007D01*
X564619Y902256D01*
X563471Y906041D01*
X561607Y909530D01*
X559097Y912587D01*
X556040Y915097D01*
X552551Y916961D01*
X548766Y918109D01*
X547280Y918256D01*
X545725Y918900D01*
X543935D01*
X542281Y918215D01*
X541015Y916949D01*
X540330Y915295D01*
Y913505D01*
X541015Y911851D01*
X542281Y910585D01*
X543935Y909900D01*
X545725D01*
X546381Y910172D01*
X547950Y909965D01*
X550858Y908761D01*
X553355Y906845D01*
X555271Y904348D01*
X556475Y901440D01*
X556864Y898485D01*
X556832Y898320D01*
Y828040D01*
X556868Y827858D01*
X556475Y823870D01*
X555259Y819860D01*
X553284Y816164D01*
X550625Y812925D01*
X547386Y810267D01*
X543690Y808291D01*
X539680Y807075D01*
X535692Y806682D01*
X535510Y806718D01*
X448953D01*
X447935Y807140D01*
X446145D01*
X444491Y806455D01*
X443225Y805189D01*
X442540Y803535D01*
Y801745D01*
X443225Y800091D01*
X444491Y798825D01*
X446145Y798140D01*
X447935D01*
X448953Y798562D01*
X535510D01*
Y798549D01*
X540123Y798912D01*
X544623Y799993D01*
X548899Y801763D01*
X552844Y804181D01*
X556363Y807187D01*
X559369Y810706D01*
X561787Y814651D01*
X563558Y818927D01*
X564638Y823427D01*
X565001Y828040D01*
X564988D01*
Y841816D01*
X568493Y842092D01*
X572993Y843173D01*
X577269Y844943D01*
X581214Y847361D01*
X584733Y850367D01*
X587739Y853886D01*
X590157Y857831D01*
X591927Y862107D01*
X593008Y866607D01*
X593371Y871220D01*
X593358D01*
Y898892D01*
X684262D01*
Y883770D01*
X684222D01*
X684692Y879002D01*
X686083Y874418D01*
X688341Y870193D01*
X691380Y866490D01*
X695083Y863451D01*
X699308Y861192D01*
X703892Y859802D01*
X706275Y859567D01*
X707765Y858950D01*
X709555D01*
X711209Y859635D01*
X712475Y860901D01*
X713160Y862555D01*
Y864345D01*
X712475Y865999D01*
X711209Y867265D01*
X709555Y867950D01*
X707765D01*
X707057Y867657D01*
X705486Y867811D01*
X702433Y868737D01*
X699620Y870241D01*
X697154Y872264D01*
X695131Y874730D01*
X693627Y877543D01*
X692701Y880596D01*
X692399Y883670D01*
X692418Y883770D01*
Y898892D01*
X842010D01*
Y898879D01*
X846623Y899242D01*
X851123Y900322D01*
X855399Y902093D01*
X859344Y904511D01*
X862863Y907517D01*
X865869Y911036D01*
X868287Y914981D01*
X870058Y919257D01*
X871138Y923757D01*
X871501Y928370D01*
X871488D01*
Y1221740D01*
X871501D01*
X871138Y1226353D01*
X870058Y1230853D01*
X868287Y1235129D01*
X865869Y1239074D01*
X862863Y1242593D01*
X859344Y1245599D01*
X855399Y1248017D01*
X851123Y1249788D01*
X846623Y1250868D01*
X842010Y1251231D01*
Y1251218D01*
X666123D01*
X665105Y1251640D01*
D02*
G37*
G36*
X345440Y904630D02*
Y900430D01*
X349640D01*
X348867Y902298D01*
X347308Y903857D01*
X345440Y904630D01*
D02*
G37*
G36*
X342900D02*
X341032Y903857D01*
X339473Y902298D01*
X338700Y900430D01*
X342900D01*
Y904630D01*
D02*
G37*
G36*
X349640Y897890D02*
X345440D01*
Y893690D01*
X347308Y894463D01*
X348867Y896022D01*
X349640Y897890D01*
D02*
G37*
G36*
X342900D02*
X338700D01*
X339473Y896022D01*
X341032Y894463D01*
X342900Y893690D01*
Y897890D01*
D02*
G37*
G36*
X783590Y895740D02*
Y891540D01*
X787790D01*
X787017Y893408D01*
X785458Y894967D01*
X783590Y895740D01*
D02*
G37*
G36*
X781050D02*
X779182Y894967D01*
X777623Y893408D01*
X776850Y891540D01*
X781050D01*
Y895740D01*
D02*
G37*
G36*
X787790Y889000D02*
X783590D01*
Y884800D01*
X785458Y885573D01*
X787017Y887132D01*
X787790Y889000D01*
D02*
G37*
G36*
X781050D02*
X776850D01*
X777623Y887132D01*
X779182Y885573D01*
X781050Y884800D01*
Y889000D01*
D02*
G37*
G36*
X486410Y884310D02*
Y880110D01*
X490610D01*
X489837Y881978D01*
X488278Y883537D01*
X486410Y884310D01*
D02*
G37*
G36*
X483870D02*
X482002Y883537D01*
X480443Y881978D01*
X479670Y880110D01*
X483870D01*
Y884310D01*
D02*
G37*
G36*
X490610Y877570D02*
X486410D01*
Y873370D01*
X488278Y874143D01*
X489837Y875702D01*
X490610Y877570D01*
D02*
G37*
G36*
X483870D02*
X479670D01*
X480443Y875702D01*
X482002Y874143D01*
X483870Y873370D01*
Y877570D01*
D02*
G37*
G36*
X838161Y886920D02*
X835699D01*
X833321Y886283D01*
X831189Y885052D01*
X829448Y883311D01*
X828217Y881179D01*
X827580Y878801D01*
Y876339D01*
X828217Y873961D01*
X829448Y871829D01*
X831189Y870088D01*
X833321Y868857D01*
X835699Y868220D01*
X838161D01*
X840539Y868857D01*
X842671Y870088D01*
X844412Y871829D01*
X845643Y873961D01*
X846280Y876339D01*
Y878801D01*
X845643Y881179D01*
X844412Y883311D01*
X842671Y885052D01*
X840539Y886283D01*
X838161Y886920D01*
D02*
G37*
G36*
X664670Y878030D02*
X645970D01*
Y859330D01*
X664670D01*
Y878030D01*
D02*
G37*
G36*
X846280Y861520D02*
X827580D01*
Y842820D01*
X846280D01*
Y861520D01*
D02*
G37*
G36*
X656551Y852630D02*
X654089D01*
X651711Y851993D01*
X649579Y850762D01*
X647838Y849021D01*
X646607Y846889D01*
X645970Y844511D01*
Y842049D01*
X646607Y839671D01*
X647838Y837539D01*
X649579Y835798D01*
X651711Y834567D01*
X654089Y833930D01*
X656551D01*
X658929Y834567D01*
X661061Y835798D01*
X662802Y837539D01*
X664033Y839671D01*
X664670Y842049D01*
Y844511D01*
X664033Y846889D01*
X662802Y849021D01*
X661061Y850762D01*
X658929Y851993D01*
X656551Y852630D01*
D02*
G37*
G36*
X345440Y773820D02*
Y769620D01*
X349640D01*
X348867Y771488D01*
X347308Y773047D01*
X345440Y773820D01*
D02*
G37*
G36*
X342900D02*
X341032Y773047D01*
X339473Y771488D01*
X338700Y769620D01*
X342900D01*
Y773820D01*
D02*
G37*
G36*
X349640Y767080D02*
X345440D01*
Y762880D01*
X347308Y763653D01*
X348867Y765212D01*
X349640Y767080D01*
D02*
G37*
G36*
X342900D02*
X338700D01*
X339473Y765212D01*
X341032Y763653D01*
X342900Y762880D01*
Y767080D01*
D02*
G37*
G36*
X345897Y741390D02*
X345440D01*
Y725120D01*
X361710D01*
Y725577D01*
X361036Y728966D01*
X359714Y732158D01*
X357794Y735031D01*
X355351Y737474D01*
X352478Y739394D01*
X349286Y740716D01*
X345897Y741390D01*
D02*
G37*
G36*
X342900D02*
X342443D01*
X339054Y740716D01*
X335862Y739394D01*
X332989Y737474D01*
X330546Y735031D01*
X328626Y732158D01*
X327304Y728966D01*
X326630Y725577D01*
Y725120D01*
X342900D01*
Y741390D01*
D02*
G37*
G36*
X361710Y722580D02*
X345440D01*
Y706310D01*
X345897D01*
X349286Y706984D01*
X352478Y708306D01*
X355351Y710226D01*
X357794Y712669D01*
X359714Y715542D01*
X361036Y718734D01*
X361710Y722122D01*
Y722580D01*
D02*
G37*
G36*
X342900D02*
X326630D01*
Y722122D01*
X327304Y718734D01*
X328626Y715542D01*
X330546Y712669D01*
X332989Y710226D01*
X335862Y708306D01*
X339054Y706984D01*
X342443Y706310D01*
X342900D01*
Y722580D01*
D02*
G37*
%LPD*%
D35*
X716280Y1093470D02*
D03*
X777240Y1068070D02*
D03*
X847090D02*
D03*
X836930Y877570D02*
D03*
X533400Y1052830D02*
D03*
X655320Y843280D02*
D03*
X511810Y1105950D02*
D03*
Y1211580D02*
D03*
Y1156970D02*
D03*
D36*
X716280Y1068070D02*
D03*
X777240Y1093470D02*
D03*
X847090D02*
D03*
X836930Y852170D02*
D03*
X655320Y868680D02*
D03*
D39*
X558800Y1052830D02*
D03*
X486410Y1211580D02*
D03*
Y1156970D02*
D03*
Y1105950D02*
D03*
D41*
X688340Y883770D02*
G03*
X708660Y863450I20320J0D01*
G01*
X563880Y845820D02*
G03*
X589280Y871220I0J25400D01*
G01*
X535510Y802640D02*
G03*
X560910Y828040I0J25400D01*
G01*
X463550Y1073150D02*
G03*
X449580Y1059180I0J-13970D01*
G01*
Y969010D02*
G03*
X474980Y943610I25400J0D01*
G01*
X476250D02*
G03*
X453390Y920750I0J-22860D01*
G01*
Y918210D02*
G03*
X478790Y892810I25400J0D01*
G01*
X560910Y898320D02*
G03*
X544830Y914400I-16080J0D01*
G01*
X419100Y767080D02*
G03*
X444500Y741680I25400J0D01*
G01*
X440690Y892810D02*
G03*
X419100Y871220I0J-21590D01*
G01*
X759460Y741680D02*
G03*
X805180Y787400I0J45720D01*
G01*
X842010Y902970D02*
G03*
X867410Y928370I0J25400D01*
G01*
Y1221740D02*
G03*
X842010Y1247140I-25400J0D01*
G01*
X560910Y828040D02*
Y898320D01*
X688340Y902970D02*
X842010D01*
X589280D02*
X688340D01*
Y883770D02*
Y902970D01*
X447040Y802640D02*
X535510D01*
X463550Y1073150D02*
X495300D01*
X449580Y969010D02*
Y1059180D01*
X476250Y943610D02*
X482600D01*
X474980D02*
X476250D01*
X453390Y918210D02*
Y920750D01*
X440690Y892810D02*
X478790D01*
X506730D01*
X467360Y741680D02*
X759460D01*
X444500D02*
X467360D01*
X419100Y767080D02*
Y871220D01*
X664210Y1247140D02*
X842010D01*
X589280Y871220D02*
Y902970D01*
X784860Y869950D02*
X805180Y849630D01*
Y787400D02*
Y849630D01*
X589280Y902970D02*
Y1032510D01*
X867410Y928370D02*
Y1221740D01*
D42*
X798830Y1234590D02*
D03*
Y1164590D02*
D03*
D43*
X344170Y1231950D02*
D03*
Y1015950D02*
D03*
Y939850D02*
D03*
Y723850D02*
D03*
D44*
X561340Y845820D02*
D03*
X544830Y914400D02*
D03*
X344170Y768350D02*
D03*
Y899160D02*
D03*
X485140Y878840D02*
D03*
X506730Y892810D02*
D03*
X447040Y802640D02*
D03*
X589280Y1032510D02*
D03*
X656590Y1059180D02*
D03*
X373380Y1179830D02*
D03*
X452120Y1129030D02*
D03*
X495300Y1073150D02*
D03*
X482600Y943610D02*
D03*
X467360Y741680D02*
D03*
X664210Y1247140D02*
D03*
X708660Y863450D02*
D03*
X782320Y890270D02*
D03*
X784860Y869950D02*
D03*
M02*
